# xmcd
#
# Track frame offsets: 
#        150
#        23233
#        37077
#        64416
#        81355
#        102683
#        120951
#        136437
#        156553
#        179458
#        198278
#        219903
#        226761
#
# Disc length: 3228 seconds
#
# Revision: 2
# Processed by: cddbd v1.5.1PL2 Copyright (c) Steve Scherf et al.
# Submitted via: ExactAudioCopy v0.95b3
#
DISCID=b90c9a0d
DTITLE=Александр Гейнц и Сергей Данилов - Арктика
DYEAR=2004
DGENRE=Bards
TTITLE0=Арктика
TTITLE1=Гончая
TTITLE2=Кондопога
TTITLE3=Встречный вальс
TTITLE4=В самолете "Ленинград-Магадан"
TTITLE5=Неспящие в Питере
TTITLE6=Кризис среднего возраста
TTITLE7=Колыбельная для еврейской девушки
TTITLE8=Точка возврата
TTITLE9=Одна
TTITLE10=Последняя песня
TTITLE11=Окно в мой дом
TTITLE12=Белое безмолвие
EXTD=YEAR: 2004
EXTT0=
EXTT1=
EXTT2=
EXTT3=
EXTT4=
EXTT5=
EXTT6=
EXTT7=
EXTT8=
EXTT9=
EXTT10=
EXTT11=
EXTT12=
PLAYORDER=
